<svg xmlns="http://www.w3.org/2000/svg" xmlns:xlink="http://www.w3.org/1999/xlink" width="500" zoomAndPan="magnify" viewBox="0 0 375 374.999991" height="500" preserveAspectRatio="xMidYMid meet" version="1.0"><defs><g/><clipPath id="0d5d3443e9"><rect x="0" width="240" y="0" height="92"/></clipPath></defs><g fill="#000000" fill-opacity="1"><g transform="translate(78.775717, 173.948741)"><g><path d="M 15.25 -40.59375 L 15.25 -12.421875 L 16.90625 -12.421875 C 17.519531 -12.472656 18.023438 -12.710938 18.421875 -13.140625 C 18.816406 -13.578125 19.015625 -14.101562 19.015625 -14.71875 L 19.015625 -38.171875 C 19.015625 -39.222656 18.78125 -39.890625 18.3125 -40.171875 C 17.851562 -40.453125 17.320312 -40.59375 16.71875 -40.59375 Z M 1.453125 -1.578125 L 1.453125 -51.484375 C 1.453125 -52.554688 1.9375 -53.09375 2.90625 -53.09375 L 17.515625 -53.09375 C 19.609375 -53.09375 21.570312 -52.796875 23.40625 -52.203125 C 25.25 -51.617188 26.875 -50.734375 28.28125 -49.546875 C 29.6875 -48.359375 30.789062 -46.875 31.59375 -45.09375 C 32.40625 -43.320312 32.8125 -41.222656 32.8125 -38.796875 L 32.8125 -14.265625 C 32.8125 -11.835938 32.40625 -9.726562 31.59375 -7.9375 C 30.789062 -6.144531 29.6875 -4.660156 28.28125 -3.484375 C 26.875 -2.304688 25.242188 -1.429688 23.390625 -0.859375 C 21.546875 -0.285156 19.585938 0 17.515625 0 L 2.90625 0 C 1.9375 0 1.453125 -0.523438 1.453125 -1.578125 Z M 1.453125 -1.578125 "/></g></g></g><g fill="#000000" fill-opacity="1"><g transform="translate(112.502827, 173.948741)"><g><path d="M 15.90625 -28.9375 C 15.289062 -28.9375 14.816406 -28.75 14.484375 -28.375 C 14.148438 -28.007812 13.984375 -27.660156 13.984375 -27.328125 L 13.984375 -24.984375 L 17.703125 -24.984375 L 17.703125 -27.296875 C 17.703125 -27.648438 17.546875 -28.007812 17.234375 -28.375 C 16.929688 -28.75 16.488281 -28.9375 15.90625 -28.9375 Z M 29.359375 -12.6875 L 29.359375 -11.875 C 29.359375 -10.113281 29.03125 -8.472656 28.375 -6.953125 C 27.726562 -5.429688 26.789062 -4.085938 25.5625 -2.921875 C 24.332031 -1.765625 22.875 -0.859375 21.1875 -0.203125 C 19.507812 0.441406 17.632812 0.765625 15.5625 0.765625 C 13.539062 0.765625 11.640625 0.441406 9.859375 -0.203125 C 8.085938 -0.859375 6.53125 -1.765625 5.1875 -2.921875 C 3.851562 -4.085938 2.804688 -5.429688 2.046875 -6.953125 C 1.296875 -8.472656 0.921875 -10.113281 0.921875 -11.875 L 0.921875 -27.40625 C 0.921875 -29.144531 1.296875 -30.78125 2.046875 -32.3125 C 2.804688 -33.84375 3.851562 -35.179688 5.1875 -36.328125 C 6.53125 -37.484375 8.085938 -38.382812 9.859375 -39.03125 C 11.640625 -39.6875 13.539062 -40.015625 15.5625 -40.015625 C 17.632812 -40.015625 19.523438 -39.6875 21.234375 -39.03125 C 22.941406 -38.382812 24.410156 -37.484375 25.640625 -36.328125 C 26.867188 -35.179688 27.820312 -33.84375 28.5 -32.3125 C 29.175781 -30.78125 29.515625 -29.144531 29.515625 -27.40625 L 29.515625 -18.125 C 29.515625 -17.613281 29.34375 -17.203125 29 -16.890625 C 28.65625 -16.585938 28.203125 -16.4375 27.640625 -16.4375 L 13.984375 -16.4375 L 13.984375 -11.921875 C 13.984375 -11.585938 14.148438 -11.234375 14.484375 -10.859375 C 14.816406 -10.492188 15.289062 -10.3125 15.90625 -10.3125 C 16.570312 -10.3125 17.035156 -10.515625 17.296875 -10.921875 C 17.566406 -11.328125 17.703125 -11.6875 17.703125 -12 L 17.703125 -12.796875 C 17.703125 -12.929688 17.769531 -13.113281 17.90625 -13.34375 C 18.050781 -13.570312 18.351562 -13.6875 18.8125 -13.6875 L 28.328125 -13.6875 C 29.015625 -13.6875 29.359375 -13.351562 29.359375 -12.6875 Z M 29.359375 -12.6875 "/></g></g></g><g fill="#000000" fill-opacity="1"><g transform="translate(142.857225, 173.948741)"><g><path d="M 27.015625 -26.328125 L 18.40625 -26.328125 C 17.914062 -26.328125 17.570312 -26.4375 17.375 -26.65625 C 17.1875 -26.875 17.09375 -27.1875 17.09375 -27.59375 L 17.09375 -27.671875 C 17.09375 -28.109375 16.945312 -28.425781 16.65625 -28.625 C 16.363281 -28.832031 16 -28.9375 15.5625 -28.9375 C 15.019531 -28.9375 14.609375 -28.789062 14.328125 -28.5 C 14.046875 -28.207031 13.90625 -27.84375 13.90625 -27.40625 C 13.90625 -26.84375 14.113281 -26.40625 14.53125 -26.09375 C 14.957031 -25.789062 15.660156 -25.453125 16.640625 -25.078125 C 17.628906 -24.710938 18.941406 -24.132812 20.578125 -23.34375 C 23.617188 -21.914062 25.867188 -20.160156 27.328125 -18.078125 C 28.785156 -15.992188 29.515625 -13.8125 29.515625 -11.53125 C 29.515625 -9.082031 28.921875 -6.9375 27.734375 -5.09375 C 26.546875 -3.257812 24.878906 -1.820312 22.734375 -0.78125 C 20.585938 0.25 18.054688 0.765625 15.140625 0.765625 C 12.585938 0.765625 10.445312 0.523438 8.71875 0.046875 C 7 -0.421875 5.59375 -1.0625 4.5 -1.875 C 3.414062 -2.695312 2.585938 -3.644531 2.015625 -4.71875 C 1.441406 -5.789062 1.050781 -6.9375 0.84375 -8.15625 C 0.632812 -9.382812 0.53125 -10.625 0.53125 -11.875 L 0.53125 -12 C 0.53125 -12.4375 0.734375 -12.734375 1.140625 -12.890625 C 1.554688 -13.054688 2.125 -13.140625 2.84375 -13.140625 L 11.765625 -13.140625 C 12.484375 -13.140625 12.84375 -12.734375 12.84375 -11.921875 L 12.84375 -11.5 C 12.84375 -11.039062 13.03125 -10.726562 13.40625 -10.5625 C 13.789062 -10.394531 14.175781 -10.3125 14.5625 -10.3125 C 15 -10.3125 15.421875 -10.382812 15.828125 -10.53125 C 16.234375 -10.6875 16.4375 -11.035156 16.4375 -11.578125 C 16.4375 -12.140625 16.125 -12.632812 15.5 -13.0625 C 14.875 -13.5 14.09375 -13.898438 13.15625 -14.265625 C 12.226562 -14.640625 11.269531 -15.015625 10.28125 -15.390625 C 9.300781 -15.765625 8.457031 -16.15625 7.75 -16.5625 C 5.625 -17.789062 3.957031 -19.320312 2.75 -21.15625 C 1.550781 -23 0.953125 -25.1875 0.953125 -27.71875 C 0.953125 -29.476562 1.296875 -31.101562 1.984375 -32.59375 C 2.679688 -34.09375 3.65625 -35.394531 4.90625 -36.5 C 6.15625 -37.613281 7.628906 -38.476562 9.328125 -39.09375 C 11.023438 -39.707031 12.882812 -40.015625 14.90625 -40.015625 C 18.050781 -40.015625 20.644531 -39.488281 22.6875 -38.4375 C 24.738281 -37.394531 26.257812 -35.925781 27.25 -34.03125 C 28.25 -32.144531 28.75 -29.9375 28.75 -27.40625 L 28.75 -27.21875 C 28.75 -26.800781 28.644531 -26.546875 28.4375 -26.453125 C 28.238281 -26.367188 27.859375 -26.328125 27.296875 -26.328125 C 27.265625 -26.328125 27.222656 -26.328125 27.171875 -26.328125 C 27.117188 -26.328125 27.066406 -26.328125 27.015625 -26.328125 Z M 27.015625 -26.328125 "/></g></g></g><g fill="#000000" fill-opacity="1"><g transform="translate(172.866687, 173.948741)"><g><path d="M 1.53125 -1.34375 L 1.53125 -37.90625 C 1.53125 -38.363281 1.6875 -38.703125 2 -38.921875 C 2.320312 -39.140625 2.648438 -39.25 2.984375 -39.25 L 13 -39.25 C 13.425781 -39.25 13.8125 -39.125 14.15625 -38.875 C 14.507812 -38.632812 14.6875 -38.3125 14.6875 -37.90625 L 14.6875 -1.34375 C 14.6875 -0.90625 14.523438 -0.570312 14.203125 -0.34375 C 13.878906 -0.113281 13.476562 0 13 0 L 2.984375 0 C 2.015625 0 1.53125 -0.445312 1.53125 -1.34375 Z M 14.796875 -50.5625 L 14.796875 -43.625 C 14.796875 -42.695312 14.570312 -42.066406 14.125 -41.734375 C 13.675781 -41.410156 13.046875 -41.25 12.234375 -41.25 L 4.0625 -41.25 C 3.25 -41.25 2.570312 -41.40625 2.03125 -41.71875 C 1.5 -42.039062 1.234375 -42.660156 1.234375 -43.578125 L 1.234375 -50.5625 C 1.234375 -51.300781 1.4375 -51.925781 1.84375 -52.4375 C 2.25 -52.945312 2.988281 -53.203125 4.0625 -53.203125 L 12.234375 -53.203125 C 13.148438 -53.203125 13.804688 -52.960938 14.203125 -52.484375 C 14.597656 -52.015625 14.796875 -51.375 14.796875 -50.5625 Z M 14.796875 -50.5625 "/></g></g></g><g fill="#000000" fill-opacity="1"><g transform="translate(189.078696, 173.948741)"><g><path d="M 17.328125 -21.46875 L 17.328125 -26.984375 C 17.328125 -27.335938 17.195312 -27.695312 16.9375 -28.0625 C 16.6875 -28.4375 16.265625 -28.625 15.671875 -28.625 C 15.054688 -28.625 14.613281 -28.4375 14.34375 -28.0625 C 14.082031 -27.695312 13.953125 -27.347656 13.953125 -27.015625 L 13.953125 -21.46875 C 13.953125 -21.132812 14.09375 -20.773438 14.375 -20.390625 C 14.65625 -20.003906 15.085938 -19.8125 15.671875 -19.8125 C 16.265625 -19.8125 16.6875 -20.003906 16.9375 -20.390625 C 17.195312 -20.773438 17.328125 -21.132812 17.328125 -21.46875 Z M 19.3125 11.15625 L 19.3125 7.8125 C 19.3125 6.507812 18.828125 5.859375 17.859375 5.859375 L 9.921875 5.78125 L 9.28125 5.78125 C 7.738281 5.78125 6.347656 5.347656 5.109375 4.484375 C 3.878906 3.617188 2.898438 2.492188 2.171875 1.109375 C 1.441406 -0.265625 1.078125 -1.722656 1.078125 -3.265625 L 1.078125 -5.09375 C 1.078125 -6.625 1.359375 -8.113281 1.921875 -9.5625 C 2.484375 -11.007812 3.160156 -12.296875 3.953125 -13.421875 C 3.003906 -14.617188 2.253906 -16.019531 1.703125 -17.625 C 1.148438 -19.238281 0.875 -21.054688 0.875 -23.078125 L 0.875 -25.53125 C 0.875 -27.75 1.25 -29.753906 2 -31.546875 C 2.757812 -33.335938 3.8125 -34.863281 5.15625 -36.125 C 6.5 -37.394531 8.054688 -38.359375 9.828125 -39.015625 C 11.609375 -39.679688 13.507812 -40.015625 15.53125 -40.015625 C 17.394531 -40.015625 19.171875 -39.757812 20.859375 -39.25 L 33.578125 -39.25 C 34.015625 -39.25 34.351562 -39.164062 34.59375 -39 C 34.832031 -38.832031 34.953125 -38.507812 34.953125 -38.03125 L 34.953125 -30.734375 C 34.953125 -30.171875 34.851562 -29.804688 34.65625 -29.640625 C 34.46875 -29.484375 34.144531 -29.40625 33.6875 -29.40625 L 29.96875 -29.40625 C 30.101562 -28.789062 30.207031 -28.148438 30.28125 -27.484375 C 30.351562 -26.816406 30.390625 -26.125 30.390625 -25.40625 L 30.390625 -23.34375 C 30.390625 -20.863281 30.003906 -18.691406 29.234375 -16.828125 C 28.472656 -14.960938 27.414062 -13.410156 26.0625 -12.171875 C 24.707031 -10.929688 23.132812 -10 21.34375 -9.375 C 19.5625 -8.75 17.644531 -8.4375 15.59375 -8.4375 C 14.832031 -8.4375 14.066406 -8.472656 13.296875 -8.546875 C 13.097656 -8.210938 13 -7.738281 13 -7.125 L 13 -6.96875 C 13 -6.488281 13.179688 -6.132812 13.546875 -5.90625 C 13.921875 -5.675781 14.347656 -5.5625 14.828125 -5.5625 L 22.109375 -5.5625 C 23.421875 -5.5625 24.6875 -5.445312 25.90625 -5.21875 C 27.132812 -4.988281 28.238281 -4.546875 29.21875 -3.890625 C 30.207031 -3.234375 30.988281 -2.285156 31.5625 -1.046875 C 32.132812 0.191406 32.421875 1.832031 32.421875 3.875 L 32.421875 11 C 32.421875 11.71875 32.066406 12.078125 31.359375 12.078125 L 20.3125 12.078125 C 19.957031 12.078125 19.703125 11.984375 19.546875 11.796875 C 19.390625 11.617188 19.3125 11.40625 19.3125 11.15625 Z M 19.3125 11.15625 "/></g></g></g><g fill="#000000" fill-opacity="1"><g transform="translate(224.60714, 173.948741)"><g><path d="M 30.625 -24.296875 L 31.078125 -24.1875 L 31.078125 -1.453125 C 31.078125 -0.972656 30.957031 -0.609375 30.71875 -0.359375 C 30.476562 -0.117188 30.15625 0 29.75 0 L 19.28125 0 C 18.414062 0 17.984375 -0.484375 17.984375 -1.453125 L 17.984375 -27.015625 C 17.953125 -27.453125 17.796875 -27.828125 17.515625 -28.140625 C 17.234375 -28.460938 16.835938 -28.625 16.328125 -28.625 C 15.691406 -28.625 15.25 -28.425781 15 -28.03125 C 14.757812 -27.632812 14.640625 -27.234375 14.640625 -26.828125 L 14.640625 -1.453125 C 14.640625 -0.484375 14.242188 0 13.453125 0 L 2.875 0 C 2.46875 0 2.140625 -0.117188 1.890625 -0.359375 C 1.648438 -0.609375 1.53125 -0.972656 1.53125 -1.453125 L 1.53125 -27.171875 C 1.53125 -28.804688 1.875 -30.390625 2.5625 -31.921875 C 3.257812 -33.460938 4.238281 -34.835938 5.5 -36.046875 C 6.757812 -37.265625 8.265625 -38.226562 10.015625 -38.9375 C 11.773438 -39.65625 13.726562 -40.015625 15.875 -40.015625 C 19.113281 -40.015625 21.863281 -39.445312 24.125 -38.3125 C 26.382812 -37.175781 28.109375 -35.640625 29.296875 -33.703125 C 30.484375 -31.773438 31.078125 -29.625 31.078125 -27.25 L 31.078125 -24.21875 Z M 30.625 -24.296875 "/></g></g></g><g fill="#000000" fill-opacity="1"><g transform="translate(257.263987, 173.948741)"><g/></g></g><g fill="#000000" fill-opacity="1"><g transform="translate(276.733728, 173.948741)"><g/></g></g><g transform="matrix(1, 0, 0, 1, 67, 174)"><g clip-path="url(#0d5d3443e9)"><g fill="#ffd21f" fill-opacity="1"><g transform="translate(1.605861, 72.299563)"><g><path d="M 15.109375 -38.9375 L 15.109375 -22.15625 L 18.8125 -22.15625 L 18.8125 -38.9375 C 18.8125 -39.582031 18.691406 -40.171875 18.453125 -40.703125 C 18.210938 -41.242188 17.722656 -41.515625 16.984375 -41.515625 C 16.242188 -41.515625 15.742188 -41.242188 15.484375 -40.703125 C 15.234375 -40.171875 15.109375 -39.582031 15.109375 -38.9375 Z M 32.625 -39.75 L 32.625 -1.609375 C 32.625 -1.203125 32.503906 -0.832031 32.265625 -0.5 C 32.035156 -0.164062 31.707031 0 31.28125 0 L 20.15625 0 C 19.78125 0 19.460938 -0.164062 19.203125 -0.5 C 18.941406 -0.832031 18.8125 -1.203125 18.8125 -1.609375 L 18.8125 -10.15625 L 15.109375 -10.15625 L 15.109375 -1.609375 C 15.109375 -1.171875 15.03125 -0.789062 14.875 -0.46875 C 14.71875 -0.15625 14.382812 0 13.875 0 L 2.34375 0 C 2.0625 0 1.816406 -0.164062 1.609375 -0.5 C 1.398438 -0.832031 1.296875 -1.203125 1.296875 -1.609375 L 1.296875 -39.75 C 1.296875 -41.71875 1.71875 -43.5625 2.5625 -45.28125 C 3.40625 -47.007812 4.554688 -48.523438 6.015625 -49.828125 C 7.472656 -51.128906 9.140625 -52.144531 11.015625 -52.875 C 12.898438 -53.601562 14.875 -53.96875 16.9375 -53.96875 C 19.007812 -53.96875 20.988281 -53.601562 22.875 -52.875 C 24.769531 -52.144531 26.445312 -51.128906 27.90625 -49.828125 C 29.363281 -48.523438 30.515625 -47.007812 31.359375 -45.28125 C 32.203125 -43.5625 32.625 -41.71875 32.625 -39.75 Z M 32.625 -39.75 "/></g></g></g><g fill="#ffd21f" fill-opacity="1"><g transform="translate(35.523016, 72.299563)"><g><path d="M 30.625 -24.296875 L 31.078125 -24.1875 L 31.078125 -1.453125 C 31.078125 -0.972656 30.957031 -0.609375 30.71875 -0.359375 C 30.476562 -0.117188 30.15625 0 29.75 0 L 19.28125 0 C 18.414062 0 17.984375 -0.484375 17.984375 -1.453125 L 17.984375 -27.015625 C 17.953125 -27.453125 17.796875 -27.828125 17.515625 -28.140625 C 17.234375 -28.460938 16.835938 -28.625 16.328125 -28.625 C 15.691406 -28.625 15.25 -28.425781 15 -28.03125 C 14.757812 -27.632812 14.640625 -27.234375 14.640625 -26.828125 L 14.640625 -1.453125 C 14.640625 -0.484375 14.242188 0 13.453125 0 L 2.875 0 C 2.46875 0 2.140625 -0.117188 1.890625 -0.359375 C 1.648438 -0.609375 1.53125 -0.972656 1.53125 -1.453125 L 1.53125 -27.171875 C 1.53125 -28.804688 1.875 -30.390625 2.5625 -31.921875 C 3.257812 -33.460938 4.238281 -34.835938 5.5 -36.046875 C 6.757812 -37.265625 8.265625 -38.226562 10.015625 -38.9375 C 11.773438 -39.65625 13.726562 -40.015625 15.875 -40.015625 C 19.113281 -40.015625 21.863281 -39.445312 24.125 -38.3125 C 26.382812 -37.175781 28.109375 -35.640625 29.296875 -33.703125 C 30.484375 -31.773438 31.078125 -29.625 31.078125 -27.25 L 31.078125 -24.21875 Z M 30.625 -24.296875 "/></g></g></g><g fill="#ffd21f" fill-opacity="1"><g transform="translate(68.175464, 72.299563)"><g><path d="M 19.234375 -39.25 L 29.28125 -39.25 C 29.664062 -39.25 29.984375 -39.125 30.234375 -38.875 C 30.492188 -38.632812 30.625 -38.285156 30.625 -37.828125 L 30.625 -2.875 C 30.625 -0.09375 30.0625 2.375 28.9375 4.53125 C 27.8125 6.695312 26.070312 8.398438 23.71875 9.640625 C 21.375 10.878906 18.363281 11.5 14.6875 11.5 C 12.050781 11.5 9.695312 11.1875 7.625 10.5625 C 5.550781 9.9375 3.800781 9.1875 2.375 8.3125 C 1.96875 8.0625 1.679688 7.726562 1.515625 7.3125 C 1.347656 6.90625 1.351562 6.5 1.53125 6.09375 L 4.515625 -0.5 C 4.773438 -0.988281 5.097656 -1.234375 5.484375 -1.234375 C 5.609375 -1.234375 5.753906 -1.195312 5.921875 -1.125 C 6.085938 -1.0625 6.257812 -0.976562 6.4375 -0.875 C 7.332031 -0.394531 8.378906 0.0351562 9.578125 0.421875 C 10.785156 0.804688 11.832031 1 12.71875 1 C 13.507812 1 14.269531 0.894531 15 0.6875 C 15.726562 0.488281 16.328125 0.0703125 16.796875 -0.5625 C 17.273438 -1.207031 17.515625 -2.171875 17.515625 -3.453125 C 15.878906 -2.679688 14.234375 -2.296875 12.578125 -2.296875 C 10.429688 -2.296875 8.492188 -2.800781 6.765625 -3.8125 C 5.035156 -4.820312 3.660156 -6.28125 2.640625 -8.1875 C 1.617188 -10.09375 1.109375 -12.382812 1.109375 -15.0625 L 1.109375 -37.828125 C 1.109375 -38.773438 1.546875 -39.25 2.421875 -39.25 L 12.921875 -39.25 C 13.765625 -39.25 14.1875 -38.773438 14.1875 -37.828125 L 14.1875 -15.171875 C 14.1875 -14.765625 14.347656 -14.414062 14.671875 -14.125 C 15.003906 -13.832031 15.414062 -13.6875 15.90625 -13.6875 C 16.539062 -13.6875 16.96875 -13.921875 17.1875 -14.390625 C 17.40625 -14.867188 17.53125 -15.3125 17.5625 -15.71875 L 17.5625 -37.296875 C 17.5625 -38.035156 17.773438 -38.546875 18.203125 -38.828125 C 18.640625 -39.109375 18.984375 -39.25 19.234375 -39.25 Z M 19.234375 -39.25 "/></g></g></g><g fill="#ffd21f" fill-opacity="1"><g transform="translate(100.253044, 72.299563)"><g><path d="M 16.0625 -48.25 L 16.0625 -39.28125 L 18.9375 -39.28125 C 19.75 -39.28125 20.15625 -38.734375 20.15625 -37.640625 L 20.15625 -29.4375 C 20.15625 -28.925781 20.019531 -28.53125 19.75 -28.25 C 19.488281 -27.96875 19.15625 -27.828125 18.75 -27.828125 L 16.0625 -27.828125 L 16.0625 -14.71875 C 16.0625 -13.695312 16.300781 -12.929688 16.78125 -12.421875 C 17.269531 -11.910156 18.269531 -11.65625 19.78125 -11.65625 L 19.96875 -11.65625 C 20.632812 -11.65625 21.015625 -11.457031 21.109375 -11.0625 C 21.210938 -10.664062 21.265625 -10.300781 21.265625 -9.96875 L 21.265625 -1.375 C 21.265625 -1.175781 21.226562 -0.96875 21.15625 -0.75 C 21.082031 -0.53125 20.859375 -0.347656 20.484375 -0.203125 C 20.117188 -0.0664062 19.5 0 18.625 0 L 15.90625 0 C 14.195312 0 12.566406 -0.195312 11.015625 -0.59375 C 9.472656 -0.988281 8.09375 -1.679688 6.875 -2.671875 C 5.664062 -3.671875 4.707031 -5.070312 4 -6.875 C 3.300781 -8.675781 2.953125 -11 2.953125 -13.84375 L 2.953125 -27.828125 L 1.34375 -27.828125 C 1.082031 -27.828125 0.804688 -27.96875 0.515625 -28.25 C 0.222656 -28.53125 0.078125 -28.925781 0.078125 -29.4375 L 0.078125 -37.53125 C 0.078125 -38.113281 0.222656 -38.550781 0.515625 -38.84375 C 0.804688 -39.132812 1.082031 -39.28125 1.34375 -39.28125 L 2.953125 -39.28125 L 2.953125 -44.84375 C 2.953125 -45.351562 3.019531 -45.726562 3.15625 -45.96875 C 3.300781 -46.21875 3.628906 -46.421875 4.140625 -46.578125 L 14.328125 -49.5625 C 14.429688 -49.613281 14.523438 -49.640625 14.609375 -49.640625 C 14.703125 -49.640625 14.789062 -49.640625 14.875 -49.640625 C 15.664062 -49.640625 16.0625 -49.175781 16.0625 -48.25 Z M 16.0625 -48.25 "/></g></g></g><g fill="#ffd21f" fill-opacity="1"><g transform="translate(122.442912, 72.299563)"><g><path d="M 31.015625 -27.171875 L 31.015625 -1.421875 C 31.015625 -0.960938 30.890625 -0.609375 30.640625 -0.359375 C 30.398438 -0.117188 30.085938 0 29.703125 0 L 19.171875 0 C 18.328125 0 17.90625 -0.472656 17.90625 -1.421875 L 17.90625 -27.140625 C 17.90625 -27.546875 17.75 -27.894531 17.4375 -28.1875 C 17.132812 -28.476562 16.738281 -28.625 16.25 -28.625 C 15.5625 -28.625 15.113281 -28.394531 14.90625 -27.9375 C 14.707031 -27.476562 14.59375 -27.046875 14.5625 -26.640625 L 14.5625 -1.609375 C 14.5625 -1.253906 14.40625 -0.894531 14.09375 -0.53125 C 13.789062 -0.175781 13.242188 0 12.453125 0 L 2.90625 0 C 1.9375 0 1.453125 -0.445312 1.453125 -1.34375 L 1.453125 -51.671875 C 1.453125 -52.617188 1.9375 -53.09375 2.90625 -53.09375 L 13.140625 -53.09375 C 14.085938 -53.09375 14.5625 -52.617188 14.5625 -51.671875 L 14.5625 -38.71875 C 15.382812 -39.125 16.238281 -39.441406 17.125 -39.671875 C 18.019531 -39.898438 18.929688 -40.015625 19.859375 -40.015625 C 21.921875 -40.015625 23.796875 -39.503906 25.484375 -38.484375 C 27.171875 -37.460938 28.515625 -35.992188 29.515625 -34.078125 C 30.515625 -32.160156 31.015625 -29.859375 31.015625 -27.171875 Z M 31.015625 -27.171875 "/></g></g></g><g fill="#ffd21f" fill-opacity="1"><g transform="translate(154.980386, 72.299563)"><g><path d="M 1.53125 -1.34375 L 1.53125 -37.90625 C 1.53125 -38.363281 1.6875 -38.703125 2 -38.921875 C 2.320312 -39.140625 2.648438 -39.25 2.984375 -39.25 L 13 -39.25 C 13.425781 -39.25 13.8125 -39.125 14.15625 -38.875 C 14.507812 -38.632812 14.6875 -38.3125 14.6875 -37.90625 L 14.6875 -1.34375 C 14.6875 -0.90625 14.523438 -0.570312 14.203125 -0.34375 C 13.878906 -0.113281 13.476562 0 13 0 L 2.984375 0 C 2.015625 0 1.53125 -0.445312 1.53125 -1.34375 Z M 14.796875 -50.5625 L 14.796875 -43.625 C 14.796875 -42.695312 14.570312 -42.066406 14.125 -41.734375 C 13.675781 -41.410156 13.046875 -41.25 12.234375 -41.25 L 4.0625 -41.25 C 3.25 -41.25 2.570312 -41.40625 2.03125 -41.71875 C 1.5 -42.039062 1.234375 -42.660156 1.234375 -43.578125 L 1.234375 -50.5625 C 1.234375 -51.300781 1.4375 -51.925781 1.84375 -52.4375 C 2.25 -52.945312 2.988281 -53.203125 4.0625 -53.203125 L 12.234375 -53.203125 C 13.148438 -53.203125 13.804688 -52.960938 14.203125 -52.484375 C 14.597656 -52.015625 14.796875 -51.375 14.796875 -50.5625 Z M 14.796875 -50.5625 "/></g></g></g><g fill="#ffd21f" fill-opacity="1"><g transform="translate(171.191637, 72.299563)"><g><path d="M 30.625 -24.296875 L 31.078125 -24.1875 L 31.078125 -1.453125 C 31.078125 -0.972656 30.957031 -0.609375 30.71875 -0.359375 C 30.476562 -0.117188 30.15625 0 29.75 0 L 19.28125 0 C 18.414062 0 17.984375 -0.484375 17.984375 -1.453125 L 17.984375 -27.015625 C 17.953125 -27.453125 17.796875 -27.828125 17.515625 -28.140625 C 17.234375 -28.460938 16.835938 -28.625 16.328125 -28.625 C 15.691406 -28.625 15.25 -28.425781 15 -28.03125 C 14.757812 -27.632812 14.640625 -27.234375 14.640625 -26.828125 L 14.640625 -1.453125 C 14.640625 -0.484375 14.242188 0 13.453125 0 L 2.875 0 C 2.46875 0 2.140625 -0.117188 1.890625 -0.359375 C 1.648438 -0.609375 1.53125 -0.972656 1.53125 -1.453125 L 1.53125 -27.171875 C 1.53125 -28.804688 1.875 -30.390625 2.5625 -31.921875 C 3.257812 -33.460938 4.238281 -34.835938 5.5 -36.046875 C 6.757812 -37.265625 8.265625 -38.226562 10.015625 -38.9375 C 11.773438 -39.65625 13.726562 -40.015625 15.875 -40.015625 C 19.113281 -40.015625 21.863281 -39.445312 24.125 -38.3125 C 26.382812 -37.175781 28.109375 -35.640625 29.296875 -33.703125 C 30.484375 -31.773438 31.078125 -29.625 31.078125 -27.25 L 31.078125 -24.21875 Z M 30.625 -24.296875 "/></g></g></g><g fill="#ffd21f" fill-opacity="1"><g transform="translate(203.844085, 72.299563)"><g><path d="M 17.328125 -21.46875 L 17.328125 -26.984375 C 17.328125 -27.335938 17.195312 -27.695312 16.9375 -28.0625 C 16.6875 -28.4375 16.265625 -28.625 15.671875 -28.625 C 15.054688 -28.625 14.613281 -28.4375 14.34375 -28.0625 C 14.082031 -27.695312 13.953125 -27.347656 13.953125 -27.015625 L 13.953125 -21.46875 C 13.953125 -21.132812 14.09375 -20.773438 14.375 -20.390625 C 14.65625 -20.003906 15.085938 -19.8125 15.671875 -19.8125 C 16.265625 -19.8125 16.6875 -20.003906 16.9375 -20.390625 C 17.195312 -20.773438 17.328125 -21.132812 17.328125 -21.46875 Z M 19.3125 11.15625 L 19.3125 7.8125 C 19.3125 6.507812 18.828125 5.859375 17.859375 5.859375 L 9.921875 5.78125 L 9.28125 5.78125 C 7.738281 5.78125 6.347656 5.347656 5.109375 4.484375 C 3.878906 3.617188 2.898438 2.492188 2.171875 1.109375 C 1.441406 -0.265625 1.078125 -1.722656 1.078125 -3.265625 L 1.078125 -5.09375 C 1.078125 -6.625 1.359375 -8.113281 1.921875 -9.5625 C 2.484375 -11.007812 3.160156 -12.296875 3.953125 -13.421875 C 3.003906 -14.617188 2.253906 -16.019531 1.703125 -17.625 C 1.148438 -19.238281 0.875 -21.054688 0.875 -23.078125 L 0.875 -25.53125 C 0.875 -27.75 1.25 -29.753906 2 -31.546875 C 2.757812 -33.335938 3.8125 -34.863281 5.15625 -36.125 C 6.5 -37.394531 8.054688 -38.359375 9.828125 -39.015625 C 11.609375 -39.679688 13.507812 -40.015625 15.53125 -40.015625 C 17.394531 -40.015625 19.171875 -39.757812 20.859375 -39.25 L 33.578125 -39.25 C 34.015625 -39.25 34.351562 -39.164062 34.59375 -39 C 34.832031 -38.832031 34.953125 -38.507812 34.953125 -38.03125 L 34.953125 -30.734375 C 34.953125 -30.171875 34.851562 -29.804688 34.65625 -29.640625 C 34.46875 -29.484375 34.144531 -29.40625 33.6875 -29.40625 L 29.96875 -29.40625 C 30.101562 -28.789062 30.207031 -28.148438 30.28125 -27.484375 C 30.351562 -26.816406 30.390625 -26.125 30.390625 -25.40625 L 30.390625 -23.34375 C 30.390625 -20.863281 30.003906 -18.691406 29.234375 -16.828125 C 28.472656 -14.960938 27.414062 -13.410156 26.0625 -12.171875 C 24.707031 -10.929688 23.132812 -10 21.34375 -9.375 C 19.5625 -8.75 17.644531 -8.4375 15.59375 -8.4375 C 14.832031 -8.4375 14.066406 -8.472656 13.296875 -8.546875 C 13.097656 -8.210938 13 -7.738281 13 -7.125 L 13 -6.96875 C 13 -6.488281 13.179688 -6.132812 13.546875 -5.90625 C 13.921875 -5.675781 14.347656 -5.5625 14.828125 -5.5625 L 22.109375 -5.5625 C 23.421875 -5.5625 24.6875 -5.445312 25.90625 -5.21875 C 27.132812 -4.988281 28.238281 -4.546875 29.21875 -3.890625 C 30.207031 -3.234375 30.988281 -2.285156 31.5625 -1.046875 C 32.132812 0.191406 32.421875 1.832031 32.421875 3.875 L 32.421875 11 C 32.421875 11.71875 32.066406 12.078125 31.359375 12.078125 L 20.3125 12.078125 C 19.957031 12.078125 19.703125 11.984375 19.546875 11.796875 C 19.390625 11.617188 19.3125 11.40625 19.3125 11.15625 Z M 19.3125 11.15625 "/></g></g></g></g></g></svg>